<svg xmlns="http://www.w3.org/2000/svg" viewBox="0 0 800 350" width="800" height="350">
  <!-- Floor - dark wood -->
  <rect x="0" y="260" width="800" height="90" fill="#6B4226"/>
  <g opacity="0.3">
    <rect x="0" y="265" width="160" height="85" fill="#5a3520" stroke="#4a2510" stroke-width="1"/>
    <rect x="160" y="265" width="160" height="85" fill="#6d4630" stroke="#4a2510" stroke-width="1"/>
    <rect x="320" y="265" width="160" height="85" fill="#5a3520" stroke="#4a2510" stroke-width="1"/>
    <rect x="480" y="265" width="160" height="85" fill="#6d4630" stroke="#4a2510" stroke-width="1"/>
    <rect x="640" y="265" width="160" height="85" fill="#5a3520" stroke="#4a2510" stroke-width="1"/>
  </g>
  <!-- Wall -->
  <rect x="0" y="0" width="800" height="260" fill="#e8d5b5"/>
  <!-- Crown molding -->
  <rect x="0" y="0" width="800" height="8" fill="#c49464"/>
  <!-- Bookshelf LEFT - tall -->
  <rect x="20" y="30" width="200" height="230" rx="3" fill="#8B4513" stroke="#6B3410" stroke-width="3"/>
  <!-- Shelves -->
  <rect x="25" y="30" width="190" height="6" fill="#6B3410"/>
  <rect x="25" y="80" width="190" height="6" fill="#6B3410"/>
  <rect x="25" y="130" width="190" height="6" fill="#6B3410"/>
  <rect x="25" y="180" width="190" height="6" fill="#6B3410"/>
  <rect x="25" y="230" width="190" height="6" fill="#6B3410"/>
  <!-- Books row 1 -->
  <rect x="30" y="36" width="14" height="42" rx="1" fill="#8B0000"/>
  <rect x="46" y="38" width="12" height="40" rx="1" fill="#00008B"/>
  <rect x="60" y="36" width="16" height="42" rx="1" fill="#006400"/>
  <rect x="78" y="40" width="10" height="38" rx="1" fill="#DAA520"/>
  <rect x="90" y="36" width="14" height="42" rx="1" fill="#4B0082"/>
  <rect x="106" y="38" width="18" height="40" rx="1" fill="#8B4513"/>
  <rect x="126" y="36" width="12" height="42" rx="1" fill="#DC143C"/>
  <rect x="140" y="37" width="15" height="41" rx="1" fill="#2F4F4F"/>
  <rect x="157" y="36" width="14" height="42" rx="1" fill="#FF8C00"/>
  <rect x="173" y="38" width="16" height="40" rx="1" fill="#483D8B"/>
  <rect x="191" y="36" width="18" height="42" rx="1" fill="#556B2F"/>
  <!-- Books row 2 -->
  <rect x="32" y="86" width="16" height="42" rx="1" fill="#B22222"/>
  <rect x="50" y="88" width="12" height="40" rx="1" fill="#191970"/>
  <rect x="64" y="86" width="14" height="42" rx="1" fill="#2E8B57"/>
  <rect x="80" y="90" width="18" height="38" rx="1" fill="#CD853F"/>
  <rect x="100" y="86" width="10" height="42" rx="1" fill="#800080"/>
  <rect x="112" y="88" width="16" height="40" rx="1" fill="#A0522D"/>
  <rect x="130" y="86" width="14" height="42" rx="1" fill="#B8860B"/>
  <rect x="146" y="87" width="12" height="41" rx="1" fill="#008080"/>
  <rect x="160" y="86" width="18" height="42" rx="1" fill="#FF6347"/>
  <rect x="180" y="88" width="14" height="40" rx="1" fill="#6A5ACD"/>
  <rect x="196" y="86" width="12" height="42" rx="1" fill="#708090"/>
  <!-- Books row 3 -->
  <rect x="30" y="136" width="18" height="42" rx="1" fill="#CD5C5C"/>
  <rect x="50" y="138" width="14" height="40" rx="1" fill="#4682B4"/>
  <rect x="66" y="136" width="12" height="42" rx="1" fill="#3CB371"/>
  <rect x="80" y="140" width="16" height="38" rx="1" fill="#D2691E"/>
  <rect x="98" y="136" width="14" height="42" rx="1" fill="#9400D3"/>
  <rect x="114" y="136" width="20" height="42" rx="1" fill="#8B6914"/>
  <rect x="136" y="138" width="12" height="40" rx="1" fill="#20B2AA"/>
  <rect x="150" y="136" width="16" height="42" rx="1" fill="#FA8072"/>
  <rect x="168" y="136" width="14" height="42" rx="1" fill="#7B68EE"/>
  <rect x="184" y="138" width="18" height="40" rx="1" fill="#2F4F4F"/>
  <!-- Books row 4 (sparse - some books removed) -->
  <rect x="35" y="186" width="14" height="42" rx="1" fill="#A52A2A"/>
  <rect x="55" y="190" width="18" height="38" rx="1" fill="#000080"/>
  <rect x="100" y="186" width="12" height="42" rx="1" fill="#006400"/>
  <rect x="130" y="188" width="16" height="40" rx="1" fill="#8B008B"/>
  <rect x="160" y="186" width="14" height="42" rx="1" fill="#B8860B"/>
  <rect x="190" y="186" width="18" height="42" rx="1" fill="#696969"/>
  <!-- Bookshelf RIGHT -->
  <rect x="580" y="30" width="200" height="230" rx="3" fill="#8B4513" stroke="#6B3410" stroke-width="3"/>
  <rect x="585" y="30" width="190" height="6" fill="#6B3410"/>
  <rect x="585" y="80" width="190" height="6" fill="#6B3410"/>
  <rect x="585" y="130" width="190" height="6" fill="#6B3410"/>
  <rect x="585" y="180" width="190" height="6" fill="#6B3410"/>
  <rect x="585" y="230" width="190" height="6" fill="#6B3410"/>
  <!-- Right shelf books (rows) -->
  <rect x="590" y="36" width="16" height="42" rx="1" fill="#800000"/>
  <rect x="608" y="38" width="12" height="40" rx="1" fill="#000080"/>
  <rect x="622" y="36" width="14" height="42" rx="1" fill="#004B00"/>
  <rect x="638" y="36" width="18" height="42" rx="1" fill="#B8860B"/>
  <rect x="658" y="38" width="10" height="40" rx="1" fill="#4B0082"/>
  <rect x="670" y="36" width="16" height="42" rx="1" fill="#8B4513"/>
  <rect x="688" y="36" width="14" height="42" rx="1" fill="#DC143C"/>
  <rect x="704" y="38" width="12" height="40" rx="1" fill="#008B8B"/>
  <rect x="718" y="36" width="16" height="42" rx="1" fill="#FF4500"/>
  <rect x="736" y="36" width="18" height="42" rx="1" fill="#6B238E"/>
  <rect x="756" y="38" width="14" height="40" rx="1" fill="#556B2F"/>
  <!-- Row 2 -->
  <rect x="590" y="86" width="14" height="42" rx="1" fill="#CD5C5C"/>
  <rect x="606" y="88" width="18" height="40" rx="1" fill="#4169E1"/>
  <rect x="626" y="86" width="12" height="42" rx="1" fill="#228B22"/>
  <rect x="640" y="86" width="16" height="42" rx="1" fill="#DAA520"/>
  <rect x="658" y="88" width="14" height="40" rx="1" fill="#9932CC"/>
  <rect x="674" y="86" width="18" height="42" rx="1" fill="#A0522D"/>
  <rect x="694" y="86" width="12" height="42" rx="1" fill="#B22222"/>
  <rect x="708" y="88" width="16" height="40" rx="1" fill="#2E8B57"/>
  <rect x="726" y="86" width="14" height="42" rx="1" fill="#D2691E"/>
  <rect x="742" y="86" width="20" height="42" rx="1" fill="#483D8B"/>
  <!-- Row 3 (some gaps) -->
  <rect x="590" y="136" width="18" height="42" rx="1" fill="#B8860B"/>
  <rect x="610" y="138" width="14" height="40" rx="1" fill="#191970"/>
  <rect x="640" y="136" width="16" height="42" rx="1" fill="#3CB371"/>
  <rect x="680" y="136" width="14" height="42" rx="1" fill="#800080"/>
  <rect x="696" y="138" width="18" height="40" rx="1" fill="#CD853F"/>
  <rect x="730" y="136" width="12" height="42" rx="1" fill="#006060"/>
  <rect x="750" y="136" width="14" height="42" rx="1" fill="#FA8072"/>
  <!-- Row 4 -->
  <rect x="595" y="186" width="16" height="42" rx="1" fill="#A52A2A"/>
  <rect x="613" y="186" width="14" height="42" rx="1" fill="#4682B4"/>
  <rect x="629" y="188" width="18" height="40" rx="1" fill="#006400"/>
  <rect x="680" y="186" width="12" height="42" rx="1" fill="#8B008B"/>
  <rect x="710" y="188" width="16" height="40" rx="1" fill="#FF8C00"/>
  <rect x="740" y="186" width="14" height="42" rx="1" fill="#696969"/>
  <!-- Reading desk (center) -->
  <rect x="290" y="200" width="220" height="12" rx="3" fill="#5C4033" stroke="#3E2723" stroke-width="2"/>
  <!-- Desk legs -->
  <rect x="300" y="212" width="10" height="48" fill="#5C4033"/>
  <rect x="490" y="212" width="10" height="48" fill="#5C4033"/>
  <rect x="300" y="248" width="200" height="8" fill="#5C4033"/>
  <!-- Open book on desk -->
  <g transform="translate(360,170)">
    <rect x="0" y="0" width="40" height="30" rx="2" fill="#FFFFF0" stroke="#999" stroke-width="1"/>
    <rect x="42" y="0" width="40" height="30" rx="2" fill="#FFFFF0" stroke="#999" stroke-width="1"/>
    <line x1="41" y1="0" x2="41" y2="30" stroke="#666" stroke-width="2"/>
    <!-- Text lines -->
    <g opacity="0.4">
      <line x1="5" y1="8" x2="35" y2="8" stroke="#333" stroke-width="1"/>
      <line x1="5" y1="13" x2="30" y2="13" stroke="#333" stroke-width="1"/>
      <line x1="5" y1="18" x2="33" y2="18" stroke="#333" stroke-width="1"/>
      <line x1="5" y1="23" x2="28" y2="23" stroke="#333" stroke-width="1"/>
      <line x1="47" y1="8" x2="77" y2="8" stroke="#333" stroke-width="1"/>
      <line x1="47" y1="13" x2="72" y2="13" stroke="#333" stroke-width="1"/>
      <line x1="47" y1="18" x2="75" y2="18" stroke="#333" stroke-width="1"/>
      <line x1="47" y1="23" x2="70" y2="23" stroke="#333" stroke-width="1"/>
    </g>
  </g>
  <!-- Ink well -->
  <ellipse cx="340" cy="195" rx="8" ry="5" fill="#1a1a2e"/>
  <line x1="342" y1="195" x2="350" y2="178" stroke="#8B4513" stroke-width="2"/>
  <!-- Old globe (right of center) -->
  <g transform="translate(520,140)">
    <!-- Stand -->
    <rect x="15" y="55" width="6" height="30" fill="#8B4513"/>
    <rect x="5" y="82" width="26" height="5" rx="2" fill="#8B4513"/>
    <!-- Globe arc stand -->
    <path d="M5,30 Q18,-5 31,30" fill="none" stroke="#DAA520" stroke-width="2"/>
    <!-- Globe -->
    <circle cx="18" cy="30" r="25" fill="#4682B4" stroke="#DAA520" stroke-width="2"/>
    <!-- Continents -->
    <ellipse cx="10" cy="25" rx="8" ry="12" fill="#228B22" opacity="0.7"/>
    <ellipse cx="25" cy="20" rx="5" ry="8" fill="#228B22" opacity="0.7"/>
    <ellipse cx="22" cy="38" rx="6" ry="5" fill="#228B22" opacity="0.7"/>
    <!-- Latitude lines -->
    <ellipse cx="18" cy="20" rx="23" ry="5" fill="none" stroke="#5F9EA0" stroke-width="0.5" opacity="0.5"/>
    <ellipse cx="18" cy="35" rx="20" ry="4" fill="none" stroke="#5F9EA0" stroke-width="0.5" opacity="0.5"/>
  </g>
  <!-- Wall lamp left -->
  <g transform="translate(240,60)">
    <rect x="0" y="0" width="8" height="20" fill="#DAA520"/>
    <path d="M-8,20 L4,20 L16,20 L8,35 L0,35 z" fill="#DAA520" stroke="#B8860B" stroke-width="1"/>
    <ellipse cx="4" cy="30" rx="4" ry="5" fill="#FFA500" opacity="0.8"/>
  </g>
  <!-- Rug -->
  <ellipse cx="400" cy="310" rx="180" ry="35" fill="#800020" opacity="0.6"/>
  <ellipse cx="400" cy="310" rx="160" ry="28" fill="#A0153E" opacity="0.4"/>
  <ellipse cx="400" cy="310" rx="140" ry="22" fill="#C41E3A" opacity="0.3"/>
</svg>